# xmcd
#
# Track frame offsets: 
#        150
#        12470
#        25526
#        35328
#
# Disc length: 596 seconds
#
# Revision: 5
# Processed by: cddbd v1.5.2PL0 Copyright (c) Steve Scherf et al.
# Submitted via: ExactAudioCopy v1.0b1
#
DISCID=22025204
DTITLE=Nada Surf - The Weight Is A Gift Bonus Disc
DYEAR=2005
DGENRE=Pop
TTITLE0=From The Rooftop Down
TTITLE1=Fools
TTITLE2=Concrete Bed Original
TTITLE3=Au Fond Du Reve Dore
EXTD=YEAR: 2005
EXTT0=
EXTT1=
EXTT2=
EXTT3=
PLAYORDER=
